<?xml version="1.0" encoding="UTF-8" standalone="no"?>
<!-- Created with Inkscape (http://www.inkscape.org/) -->

<svg
   xmlns:dc="http://purl.org/dc/elements/1.1/"
   xmlns:cc="http://creativecommons.org/ns#"
   xmlns:rdf="http://www.w3.org/1999/02/22-rdf-syntax-ns#"
   xmlns:svg="http://www.w3.org/2000/svg"
   xmlns="http://www.w3.org/2000/svg"
   xmlns:sodipodi="http://sodipodi.sourceforge.net/DTD/sodipodi-0.dtd"
   xmlns:inkscape="http://www.inkscape.org/namespaces/inkscape"
   width="210mm"
   height="297mm"
   viewBox="0 0 210 297"
   version="1.1"
   id="svg8"
   inkscape:version="0.92.3 (2405546, 2018-03-11)"
   sodipodi:docname="t_rel.svg"
   inkscape:export-filename="/home/abhishek/Dropbox/With_Sir/Summer_21/torus_notes/Latex/Torus_notes/article/figures/pngs/t_rel.png"
   inkscape:export-xdpi="232.42"
   inkscape:export-ydpi="232.42">
  <sodipodi:namedview
     id="base"
     pagecolor="#ffffff"
     bordercolor="#666666"
     borderopacity="1.0"
     inkscape:pageopacity="0.0"
     inkscape:pageshadow="2"
     inkscape:zoom="0.71357323"
     inkscape:cx="396.85039"
     inkscape:cy="673.37167"
     inkscape:document-units="mm"
     inkscape:current-layer="layer1"
     showgrid="false"
     inkscape:window-width="1920"
     inkscape:window-height="982"
     inkscape:window-x="0"
     inkscape:window-y="27"
     inkscape:window-maximized="1"
     inkscape:snap-global="false" />
  <defs
     id="defs2">
    <marker
       inkscape:stockid="Arrow1Lstart"
       orient="auto"
       refY="0.0"
       refX="0.0"
       id="Arrow1Lstart"
       style="overflow:visible"
       inkscape:isstock="true">
      <path
         id="path821"
         d="M 0.0,0.0 L 5.0,-5.0 L -12.5,0.0 L 5.0,5.0 L 0.0,0.0 z "
         style="fill-rule:evenodd;stroke:#000000;stroke-width:1pt;stroke-opacity:1;fill:#000000;fill-opacity:1"
         transform="scale(0.8) translate(12.5,0)" />
    </marker>
    <marker
       inkscape:isstock="true"
       style="overflow:visible;"
       id="Arrow1Lend"
       refX="0.0"
       refY="0.0"
       orient="auto"
       inkscape:stockid="Arrow1Lend">
      <path
         transform="scale(0.8) rotate(180) translate(12.5,0)"
         style="fill-rule:evenodd;stroke:#3d36d7;stroke-width:1pt;stroke-opacity:1;fill:#3d36d7;fill-opacity:1"
         d="M 0.0,0.0 L 5.0,-5.0 L -12.5,0.0 L 5.0,5.0 L 0.0,0.0 z "
         id="path824" />
    </marker>
    <marker
       inkscape:isstock="true"
       style="overflow:visible"
       id="Arrow1Lend-6"
       refX="0"
       refY="0"
       orient="auto"
       inkscape:stockid="Arrow1Lend">
      <path
         transform="matrix(-0.8,0,0,-0.8,-10,0)"
         style="fill:#000000;fill-opacity:1;fill-rule:evenodd;stroke:#000000;stroke-width:1.00000003pt;stroke-opacity:1"
         d="M 0,0 5,-5 -12.5,0 5,5 Z"
         id="path824-1"
         inkscape:connector-curvature="0" />
    </marker>
    <marker
       inkscape:isstock="true"
       style="overflow:visible"
       id="Arrow1Lend-3"
       refX="0"
       refY="0"
       orient="auto"
       inkscape:stockid="Arrow1Lend">
      <path
         transform="matrix(-0.8,0,0,-0.8,-10,0)"
         style="fill:#000000;fill-opacity:1;fill-rule:evenodd;stroke:#000000;stroke-width:1.00000003pt;stroke-opacity:1"
         d="M 0,0 5,-5 -12.5,0 5,5 Z"
         id="path824-2"
         inkscape:connector-curvature="0" />
    </marker>
    <marker
       inkscape:isstock="true"
       style="overflow:visible"
       id="Arrow1Lend-5"
       refX="0"
       refY="0"
       orient="auto"
       inkscape:stockid="Arrow1Lend">
      <path
         transform="matrix(-0.8,0,0,-0.8,-10,0)"
         style="fill:#000000;fill-opacity:1;fill-rule:evenodd;stroke:#000000;stroke-width:1.00000003pt;stroke-opacity:1"
         d="M 0,0 5,-5 -12.5,0 5,5 Z"
         id="path824-5"
         inkscape:connector-curvature="0" />
    </marker>
    <marker
       inkscape:isstock="true"
       style="overflow:visible"
       id="Arrow1Lend-65"
       refX="0"
       refY="0"
       orient="auto"
       inkscape:stockid="Arrow1Lend">
      <path
         transform="matrix(-0.8,0,0,-0.8,-10,0)"
         style="fill:#000000;fill-opacity:1;fill-rule:evenodd;stroke:#000000;stroke-width:1.00000003pt;stroke-opacity:1"
         d="M 0,0 5,-5 -12.5,0 5,5 Z"
         id="path824-6"
         inkscape:connector-curvature="0" />
    </marker>
    <marker
       inkscape:isstock="true"
       style="overflow:visible"
       id="Arrow1Lend-7"
       refX="0"
       refY="0"
       orient="auto"
       inkscape:stockid="Arrow1Lend">
      <path
         transform="matrix(-0.8,0,0,-0.8,-10,0)"
         style="fill:#000000;fill-opacity:1;fill-rule:evenodd;stroke:#000000;stroke-width:1.00000003pt;stroke-opacity:1"
         d="M 0,0 5,-5 -12.5,0 5,5 Z"
         id="path824-4"
         inkscape:connector-curvature="0" />
    </marker>
    <marker
       inkscape:isstock="true"
       style="overflow:visible"
       id="Arrow1Lend-54"
       refX="0"
       refY="0"
       orient="auto"
       inkscape:stockid="Arrow1Lend">
      <path
         transform="matrix(-0.8,0,0,-0.8,-10,0)"
         style="fill:#000000;fill-opacity:1;fill-rule:evenodd;stroke:#000000;stroke-width:1.00000003pt;stroke-opacity:1"
         d="M 0,0 5,-5 -12.5,0 5,5 Z"
         id="path824-7"
         inkscape:connector-curvature="0" />
    </marker>
    <marker
       inkscape:isstock="true"
       style="overflow:visible"
       id="Arrow1Lend-78"
       refX="0"
       refY="0"
       orient="auto"
       inkscape:stockid="Arrow1Lend">
      <path
         transform="matrix(-0.8,0,0,-0.8,-10,0)"
         style="fill:#000000;fill-opacity:1;fill-rule:evenodd;stroke:#000000;stroke-width:1.00000003pt;stroke-opacity:1"
         d="M 0,0 5,-5 -12.5,0 5,5 Z"
         id="path824-68"
         inkscape:connector-curvature="0" />
    </marker>
    <marker
       inkscape:isstock="true"
       style="overflow:visible"
       id="Arrow1Lend-31"
       refX="0"
       refY="0"
       orient="auto"
       inkscape:stockid="Arrow1Lend">
      <path
         transform="matrix(-0.8,0,0,-0.8,-10,0)"
         style="fill:#000000;fill-opacity:1;fill-rule:evenodd;stroke:#000000;stroke-width:1.00000003pt;stroke-opacity:1"
         d="M 0,0 5,-5 -12.5,0 5,5 Z"
         id="path824-49"
         inkscape:connector-curvature="0" />
    </marker>
    <marker
       inkscape:isstock="true"
       style="overflow:visible"
       id="Arrow1Lend-68"
       refX="0"
       refY="0"
       orient="auto"
       inkscape:stockid="Arrow1Lend">
      <path
         inkscape:connector-curvature="0"
         transform="matrix(-0.8,0,0,-0.8,-10,0)"
         style="fill:#000000;fill-opacity:1;fill-rule:evenodd;stroke:#000000;stroke-width:1.00000003pt;stroke-opacity:1"
         d="M 0,0 5,-5 -12.5,0 5,5 Z"
         id="path824-9" />
    </marker>
    <marker
       inkscape:stockid="Arrow1Lstart"
       orient="auto"
       refY="0"
       refX="0"
       id="Arrow1Lstart-6"
       style="overflow:visible"
       inkscape:isstock="true">
      <path
         inkscape:connector-curvature="0"
         id="path821-6"
         d="M 0,0 5,-5 -12.5,0 5,5 Z"
         style="fill:#000000;fill-opacity:1;fill-rule:evenodd;stroke:#000000;stroke-width:1.00000003pt;stroke-opacity:1"
         transform="matrix(0.8,0,0,0.8,10,0)" />
    </marker>
    <marker
       inkscape:stockid="Arrow1Lstart"
       orient="auto"
       refY="0"
       refX="0"
       id="Arrow1Lstart-9"
       style="overflow:visible"
       inkscape:isstock="true">
      <path
         inkscape:connector-curvature="0"
         id="path821-5"
         d="M 0,0 5,-5 -12.5,0 5,5 Z"
         style="fill:#000000;fill-opacity:1;fill-rule:evenodd;stroke:#000000;stroke-width:1.00000003pt;stroke-opacity:1"
         transform="matrix(0.8,0,0,0.8,10,0)" />
    </marker>
    <marker
       inkscape:stockid="Arrow1Lstart"
       orient="auto"
       refY="0"
       refX="0"
       id="Arrow1Lstart-4"
       style="overflow:visible"
       inkscape:isstock="true">
      <path
         inkscape:connector-curvature="0"
         id="path821-8"
         d="M 0,0 5,-5 -12.5,0 5,5 Z"
         style="fill:#000000;fill-opacity:1;fill-rule:evenodd;stroke:#000000;stroke-width:1.00000003pt;stroke-opacity:1"
         transform="matrix(0.8,0,0,0.8,10,0)" />
    </marker>
    <marker
       inkscape:stockid="Arrow1Lstart"
       orient="auto"
       refY="0"
       refX="0"
       id="Arrow1Lstart-1"
       style="overflow:visible"
       inkscape:isstock="true">
      <path
         inkscape:connector-curvature="0"
         id="path821-7"
         d="M 0,0 5,-5 -12.5,0 5,5 Z"
         style="fill:#000000;fill-opacity:1;fill-rule:evenodd;stroke:#000000;stroke-width:1.00000003pt;stroke-opacity:1"
         transform="matrix(0.8,0,0,0.8,10,0)" />
    </marker>
    <marker
       inkscape:stockid="Arrow1Lstart"
       orient="auto"
       refY="0"
       refX="0"
       id="Arrow1Lstart-7"
       style="overflow:visible"
       inkscape:isstock="true">
      <path
         inkscape:connector-curvature="0"
         id="path821-2"
         d="M 0,0 5,-5 -12.5,0 5,5 Z"
         style="fill:#000000;fill-opacity:1;fill-rule:evenodd;stroke:#000000;stroke-width:1.00000003pt;stroke-opacity:1"
         transform="matrix(0.8,0,0,0.8,10,0)" />
    </marker>
    <marker
       inkscape:stockid="Arrow1Lstart"
       orient="auto"
       refY="0"
       refX="0"
       id="Arrow1Lstart-10"
       style="overflow:visible"
       inkscape:isstock="true">
      <path
         inkscape:connector-curvature="0"
         id="path821-61"
         d="M 0,0 5,-5 -12.5,0 5,5 Z"
         style="fill:#000000;fill-opacity:1;fill-rule:evenodd;stroke:#000000;stroke-width:1.00000003pt;stroke-opacity:1"
         transform="matrix(0.8,0,0,0.8,10,0)" />
    </marker>
    <marker
       inkscape:stockid="Arrow1Lstart"
       orient="auto"
       refY="0"
       refX="0"
       id="Arrow1Lstart-94"
       style="overflow:visible"
       inkscape:isstock="true">
      <path
         inkscape:connector-curvature="0"
         id="path821-9"
         d="M 0,0 5,-5 -12.5,0 5,5 Z"
         style="fill:#000000;fill-opacity:1;fill-rule:evenodd;stroke:#000000;stroke-width:1.00000003pt;stroke-opacity:1"
         transform="matrix(0.8,0,0,0.8,10,0)" />
    </marker>
    <marker
       inkscape:stockid="Arrow1Lstart"
       orient="auto"
       refY="0"
       refX="0"
       id="Arrow1Lstart-17"
       style="overflow:visible"
       inkscape:isstock="true">
      <path
         inkscape:connector-curvature="0"
         id="path821-71"
         d="M 0,0 5,-5 -12.5,0 5,5 Z"
         style="fill:#000000;fill-opacity:1;fill-rule:evenodd;stroke:#000000;stroke-width:1.00000003pt;stroke-opacity:1"
         transform="matrix(0.8,0,0,0.8,10,0)" />
    </marker>
    <marker
       inkscape:isstock="true"
       style="overflow:visible"
       id="Arrow1Lend-59"
       refX="0"
       refY="0"
       orient="auto"
       inkscape:stockid="Arrow1Lend">
      <path
         inkscape:connector-curvature="0"
         transform="matrix(-0.8,0,0,-0.8,-10,0)"
         style="fill:#3d36d7;fill-opacity:1;fill-rule:evenodd;stroke:#3d36d7;stroke-width:1.00000003pt;stroke-opacity:1"
         d="M 0,0 5,-5 -12.5,0 5,5 Z"
         id="path824-77" />
    </marker>
    <marker
       inkscape:stockid="Arrow1Lstart"
       orient="auto"
       refY="0"
       refX="0"
       id="Arrow1Lstart-4-7"
       style="overflow:visible"
       inkscape:isstock="true">
      <path
         inkscape:connector-curvature="0"
         id="path821-8-3"
         d="M 0,0 5,-5 -12.5,0 5,5 Z"
         style="fill:#000000;fill-opacity:1;fill-rule:evenodd;stroke:#000000;stroke-width:1.00000003pt;stroke-opacity:1"
         transform="matrix(0.8,0,0,0.8,10,0)" />
    </marker>
  </defs>
  <metadata
     id="metadata5">
    <rdf:RDF>
      <cc:Work
         rdf:about="">
        <dc:format>image/svg+xml</dc:format>
        <dc:type
           rdf:resource="http://purl.org/dc/dcmitype/StillImage" />
        <dc:title></dc:title>
      </cc:Work>
    </rdf:RDF>
  </metadata>
  <g
     id="layer1"
     inkscape:groupmode="layer"
     inkscape:label="Layer 1">
    <rect
       transform="matrix(0.88431157,-0.46689726,0,1,0,0)"
       y="99.258751"
       x="32.993546"
       height="94.062042"
       width="114.38593"
       id="rect815"
       style="opacity:0.747;fill:none;fill-opacity:0.50588223;stroke:#000000;stroke-width:1.09235942;stroke-linecap:round;stroke-linejoin:miter;stroke-miterlimit:4;stroke-dasharray:none;stroke-dashoffset:0;stroke-opacity:0.74901961;paint-order:fill markers stroke" />
    <circle
       r="1.5"
       cy="102.35416"
       cx="47.991066"
       id="path817"
       style="opacity:0.747;fill:#e90808;fill-opacity:1;stroke:none;stroke-width:0.76497626;stroke-linecap:round;stroke-linejoin:miter;stroke-miterlimit:4;stroke-dasharray:none;stroke-dashoffset:0;stroke-opacity:0.74901961;paint-order:fill markers stroke" />
    <circle
       r="1.5"
       cy="167.88565"
       cx="32.450901"
       id="path817-0"
       style="opacity:0.747;fill:#e90808;fill-opacity:1;stroke:none;stroke-width:0.76497626;stroke-linecap:round;stroke-linejoin:miter;stroke-miterlimit:4;stroke-dasharray:none;stroke-dashoffset:0;stroke-opacity:0.74901961;paint-order:fill markers stroke" />
    <circle
       r="1.5"
       cy="68.477913"
       cx="121.27531"
       id="path817-06"
       style="opacity:0.747;fill:#e90808;fill-opacity:1;stroke:none;stroke-width:0.76497626;stroke-linecap:round;stroke-linejoin:miter;stroke-miterlimit:4;stroke-dasharray:none;stroke-dashoffset:0;stroke-opacity:0.74901961;paint-order:fill markers stroke" />
    <circle
       r="1.5"
       cy="86.24279"
       cx="78.18602"
       id="path817-4"
       style="opacity:0.747;fill:#e90808;fill-opacity:1;stroke:none;stroke-width:0.76497626;stroke-linecap:round;stroke-linejoin:miter;stroke-miterlimit:4;stroke-dasharray:none;stroke-dashoffset:0;stroke-opacity:0.74901961;paint-order:fill markers stroke" />
    <circle
       r="1.5"
       cy="127.4422"
       cx="80.831856"
       id="path817-9"
       style="opacity:0.747;fill:#e90808;fill-opacity:1;stroke:none;stroke-width:0.76497626;stroke-linecap:round;stroke-linejoin:miter;stroke-miterlimit:4;stroke-dasharray:none;stroke-dashoffset:0;stroke-opacity:0.74901961;paint-order:fill markers stroke" />
    <circle
       r="1.5"
       cy="128.9541"
       cx="53.995541"
       id="path817-5"
       style="opacity:0.747;fill:#e90808;fill-opacity:1;stroke:none;stroke-width:0.76497626;stroke-linecap:round;stroke-linejoin:miter;stroke-miterlimit:4;stroke-dasharray:none;stroke-dashoffset:0;stroke-opacity:0.74901961;paint-order:fill markers stroke" />
    <circle
       r="1.5"
       cy="109.67731"
       cx="106.91222"
       id="path817-44"
       style="opacity:0.747;fill:#e90808;fill-opacity:1;stroke:none;stroke-width:0.76497626;stroke-linecap:round;stroke-linejoin:miter;stroke-miterlimit:4;stroke-dasharray:none;stroke-dashoffset:0;stroke-opacity:0.74901961;paint-order:fill markers stroke" />
    <circle
       r="1.5"
       cy="52.980881"
       cx="109.55804"
       id="path817-8"
       style="opacity:0.747;fill:#e90808;fill-opacity:1;stroke:none;stroke-width:0.76497626;stroke-linecap:round;stroke-linejoin:miter;stroke-miterlimit:4;stroke-dasharray:none;stroke-dashoffset:0;stroke-opacity:0.74901961;paint-order:fill markers stroke" />
    <circle
       r="1.5"
       cy="127.4422"
       cx="117.49554"
       id="path817-2"
       style="opacity:0.747;fill:#e90808;fill-opacity:1;stroke:none;stroke-width:0.76497626;stroke-linecap:round;stroke-linejoin:miter;stroke-miterlimit:4;stroke-dasharray:none;stroke-dashoffset:0;stroke-opacity:0.74901961;paint-order:fill markers stroke" />
    <g
       id="g2769"
       transform="matrix(0.40576178,0,0,0.50215926,3.5172648,119.3177)">
      <g
         word-spacing="normal"
         letter-spacing="normal"
         font-size-adjust="none"
         font-stretch="normal"
         font-weight="normal"
         font-variant="normal"
         font-style="normal"
         stroke-miterlimit="10.433"
         xml:space="preserve"
         transform="matrix(0.3,0,0,-0.3,-52.5,222.75)"
         id="content"
         style="font-style:normal;font-variant:normal;font-weight:normal;font-stretch:normal;letter-spacing:normal;word-spacing:normal;text-anchor:start;fill:none;fill-opacity:1;fill-rule:evenodd;stroke:#000000;stroke-linecap:butt;stroke-linejoin:miter;stroke-miterlimit:10.43299961;stroke-dasharray:none;stroke-dashoffset:0;stroke-opacity:1"><path
           id="path2766"
           d="m 470.16,438.09 v 0.05 0.06 0.05 0.05 0.05 0.05 0.04 0.05 0.04 0.04 l -0.01,0.04 v 0.04 0.04 0.03 0.04 l -0.01,0.03 -0.01,0.07 v 0.06 l -0.02,0.05 -0.01,0.05 -0.02,0.05 -0.02,0.04 -0.02,0.04 -0.02,0.03 -0.03,0.03 -0.03,0.03 -0.04,0.03 -0.04,0.02 -0.04,0.02 -0.03,0.01 -0.02,0.01 h -0.03 l -0.02,0.01 -0.03,0.01 h -0.03 l -0.03,0.01 h -0.03 l -0.04,0.01 h -0.03 -0.04 l -0.03,0.01 h -0.04 -0.04 -0.05 -0.04 -0.04 l -0.05,0.01 h -0.05 -0.05 -0.05 -0.05 c -3.09,-3.19 -7.47,-3.19 -9.06,-3.19 v -1.55 c 1,0 3.93,0 6.51,1.3 v -25.81 c 0,-1.8 -0.14,-2.39 -4.62,-2.39 h -1.6 v -1.55 c 1.75,0.16 6.08,0.16 8.07,0.16 2,0 6.32,0 8.07,-0.16 v 1.55 h -1.59 c -4.48,0 -4.64,0.54 -4.64,2.39 z"
           inkscape:connector-curvature="0"
           style="fill:#000000;stroke-width:0" /></g>    </g>
    <g
       id="g2845"
       transform="matrix(0.50276518,0,0,0.50215926,16.578558,80.390267)">
      <g
         id="g2843"
         transform="matrix(0.3,0,0,-0.3,-52.5,222.75)"
         xml:space="preserve"
         stroke-miterlimit="10.433"
         font-style="normal"
         font-variant="normal"
         font-weight="normal"
         font-stretch="normal"
         font-size-adjust="none"
         letter-spacing="normal"
         word-spacing="normal"
         style="font-style:normal;font-variant:normal;font-weight:normal;font-stretch:normal;letter-spacing:normal;word-spacing:normal;text-anchor:start;fill:none;fill-opacity:1;fill-rule:evenodd;stroke:#000000;stroke-linecap:butt;stroke-linejoin:miter;stroke-miterlimit:10.43299961;stroke-dasharray:none;stroke-dashoffset:0;stroke-opacity:1"><path
           d="m 461.85,410.04 5.28,5.13 c 7.76,6.87 10.76,9.56 10.76,14.54 0,5.69 -4.48,9.68 -10.56,9.68 -5.64,0 -9.33,-4.6 -9.33,-9.03 0,-2.79 2.5,-2.79 2.64,-2.79 0.86,0 2.6,0.6 2.6,2.64 0,1.3 -0.89,2.6 -2.64,2.6 -0.39,0 -0.5,0 -0.64,-0.05 1.14,3.24 3.83,5.08 6.72,5.08 4.53,0 6.68,-4.05 6.68,-8.13 0,-3.98 -2.5,-7.92 -5.23,-11.01 l -9.56,-10.66 C 458,407.5 458,407.4 458,406.2 h 18.49 l 1.4,8.67 h -1.25 c -0.25,-1.5 -0.59,-3.69 -1.09,-4.44 -0.36,-0.39 -3.64,-0.39 -4.73,-0.39 z"
           id="path2841"
           inkscape:connector-curvature="0"
           style="fill:#000000;stroke-width:0" /></g>    </g>
    <g
       id="g2929"
       transform="matrix(0.76045621,0,0,0.59719317,17.961802,28.407019)">
      <g
         word-spacing="normal"
         letter-spacing="normal"
         font-size-adjust="none"
         font-stretch="normal"
         font-weight="normal"
         font-variant="normal"
         font-style="normal"
         stroke-miterlimit="10.433"
         xml:space="preserve"
         transform="matrix(0.3,0,0,-0.3,-52.5,222.75)"
         id="g2927"
         style="font-style:normal;font-variant:normal;font-weight:normal;font-stretch:normal;letter-spacing:normal;word-spacing:normal;text-anchor:start;fill:none;fill-opacity:1;fill-rule:evenodd;stroke:#000000;stroke-linecap:butt;stroke-linejoin:miter;stroke-miterlimit:10.43299961;stroke-dasharray:none;stroke-dashoffset:0;stroke-opacity:1"><path
           id="path2923"
           d="m 469.68,437.34 -0.01,0.09 v 0.09 l -0.01,0.1 -0.02,0.08 -0.01,0.09 -0.03,0.09 -0.02,0.08 -0.03,0.08 -0.03,0.08 -0.04,0.08 -0.04,0.08 -0.05,0.07 -0.04,0.07 -0.06,0.07 -0.05,0.06 -0.06,0.06 -0.06,0.06 -0.06,0.06 -0.07,0.05 -0.07,0.05 -0.08,0.05 -0.07,0.04 -0.09,0.04 -0.08,0.04 -0.08,0.03 -0.09,0.03 -0.1,0.02 -0.09,0.02 -0.1,0.02 -0.1,0.01 h -0.1 l -0.11,0.01 c -1.36,0 -2.7,-1.3 -2.7,-2.64 0,-0.96 0.7,-1.8 1.91,-1.8 1.14,0 2.64,1.14 2.64,2.64 z"
           inkscape:connector-curvature="0"
           style="fill:#000000;stroke-width:0" /><path
           id="path2925"
           d="m 465.88,418.61 0.05,0.13 0.05,0.12 0.05,0.12 0.05,0.11 0.04,0.1 0.04,0.1 0.03,0.09 0.04,0.09 0.03,0.09 0.04,0.08 0.03,0.08 0.02,0.08 0.03,0.07 0.03,0.07 0.05,0.15 0.05,0.14 0.05,0.14 0.03,0.07 0.03,0.08 0.03,0.08 0.02,0.08 0.04,0.08 0.03,0.09 0.03,0.1 0.04,0.09 0.03,0.11 0.04,0.11 0.05,0.11 0.04,0.13 c 0.41,1 0.66,1.68 0.66,2.64 0,2.23 -1.59,4.07 -4.09,4.07 -4.68,0 -6.58,-7.21 -6.58,-7.67 0,-0.5 0.5,-0.5 0.61,-0.5 0.5,0 0.54,0.11 0.79,0.91 1.35,4.69 3.33,6.17 5.03,6.17 0.4,0 1.25,0 1.25,-1.59 0,-1.05 -0.35,-2.1 -0.56,-2.6 -0.39,-1.29 -2.64,-7.06 -3.44,-9.22 -0.48,-1.28 -1.14,-2.93 -1.14,-3.98 0,-2.33 1.69,-4.08 4.1,-4.08 4.67,0 6.51,7.22 6.51,7.67 0,0.5 -0.43,0.5 -0.59,0.5 -0.5,0 -0.5,-0.15 -0.75,-0.9 -0.89,-3.13 -2.53,-6.17 -5.08,-6.17 -0.84,0 -1.2,0.5 -1.2,1.64 0,1.25 0.31,1.95 1.45,4.98 z"
           inkscape:connector-curvature="0"
           style="fill:#000000;stroke-width:0" /></g>    </g>
    <path
       style="fill:none;stroke:#3d36d7;stroke-width:0.365;stroke-linecap:butt;stroke-linejoin:miter;stroke-opacity:1;marker-end:url(#Arrow1Lend);stroke-miterlimit:4;stroke-dasharray:none"
       d="M 78.235955,86.022462 103.44944,49.314597"
       id="path2976"
       inkscape:connector-curvature="0" />
    <path
       style="fill:none;stroke:#000000;stroke-width:0.3;stroke-linecap:butt;stroke-linejoin:miter;stroke-opacity:1;marker-start:url(#Arrow1Lstart);stroke-miterlimit:4;stroke-dasharray:none"
       d="M 69.093647,144.44445 81.167984,126.75872"
       id="path2976-2"
       inkscape:connector-curvature="0" />
    <path
       style="fill:none;stroke:#000000;stroke-width:0.3;stroke-linecap:butt;stroke-linejoin:miter;stroke-opacity:1;marker-start:url(#Arrow1Lstart-9);stroke-miterlimit:4;stroke-dasharray:none"
       d="M 37.017385,119.25328 49.091722,101.56754"
       id="path2976-2-0"
       inkscape:connector-curvature="0" />
    <path
       style="fill:none;stroke:#000000;stroke-width:0.3;stroke-linecap:butt;stroke-linejoin:miter;stroke-opacity:1;marker-start:url(#Arrow1Lstart-4);stroke-miterlimit:4;stroke-dasharray:none"
       d="M 95.230868,126.66901 107.30521,108.98328"
       id="path2976-2-7"
       inkscape:connector-curvature="0" />
    <path
       style="fill:none;stroke:#000000;stroke-width:0.35566583;stroke-linecap:butt;stroke-linejoin:miter;stroke-miterlimit:4;stroke-dasharray:none;stroke-opacity:1;marker-start:url(#Arrow1Lstart-1)"
       d="M 79.982595,199.42521 90.27393,185.36128"
       id="path2976-2-2"
       inkscape:connector-curvature="0" />
    <path
       style="fill:none;stroke:#000000;stroke-width:0.3;stroke-linecap:butt;stroke-linejoin:miter;stroke-opacity:1;marker-start:url(#Arrow1Lstart-7);stroke-miterlimit:4;stroke-dasharray:none"
       d="M 108.94997,86.994853 121.02431,69.309119"
       id="path2976-2-26"
       inkscape:connector-curvature="0" />
    <path
       style="fill:none;stroke:#000000;stroke-width:0.3;stroke-linecap:butt;stroke-linejoin:miter;stroke-opacity:1;marker-start:url(#Arrow1Lstart-10);stroke-miterlimit:4;stroke-dasharray:none"
       d="M 97.455587,70.680246 109.52992,52.994513"
       id="path2976-2-5"
       inkscape:connector-curvature="0" />
    <path
       style="fill:none;stroke:#000000;stroke-width:0.3;stroke-linecap:butt;stroke-linejoin:miter;stroke-opacity:1;marker-start:url(#Arrow1Lstart-94);stroke-miterlimit:4;stroke-dasharray:none"
       d="M 20.331991,185.25328 32.406328,167.56755"
       id="path2976-2-09"
       inkscape:connector-curvature="0" />
    <path
       style="fill:none;stroke:#000000;stroke-width:0.3;stroke-linecap:butt;stroke-linejoin:miter;stroke-opacity:1;marker-start:url(#Arrow1Lstart-17);stroke-miterlimit:4;stroke-dasharray:none"
       d="M 41.466823,146.32069 53.54116,128.63496"
       id="path2976-2-1"
       inkscape:connector-curvature="0" />
    <path
       style="fill:none;stroke:#3d36d7;stroke-width:0.432;stroke-linecap:butt;stroke-linejoin:miter;stroke-miterlimit:4;stroke-dasharray:none;stroke-opacity:1;marker-end:url(#Arrow1Lend-59)"
       d="m 79.494965,179.94864 9.622238,-12.6751"
       id="path2976-6"
       inkscape:connector-curvature="0" />
    <g
       transform="matrix(0.61033048,0,0,0.64782325,42.019227,111.69271)"
       id="g7553">
      <g
         style="font-style:normal;font-variant:normal;font-weight:normal;font-stretch:normal;letter-spacing:normal;word-spacing:normal;text-anchor:start;fill:none;fill-opacity:1;fill-rule:evenodd;stroke:#000000;stroke-linecap:butt;stroke-linejoin:miter;stroke-miterlimit:10.43299961;stroke-dasharray:none;stroke-dashoffset:0;stroke-opacity:1"
         id="g7551"
         transform="matrix(0.3,0,0,-0.3,-52.5,222.75)"
         xml:space="preserve"
         stroke-miterlimit="10.433"
         font-style="normal"
         font-variant="normal"
         font-weight="normal"
         font-stretch="normal"
         font-size-adjust="none"
         letter-spacing="normal"
         word-spacing="normal"><path
           style="fill:#000000;stroke-width:0"
           inkscape:connector-curvature="0"
           d="m 489.75,422.5 h 0.14 0.15 0.14 l 0.07,0.01 h 0.08 l 0.07,0.01 0.07,0.01 0.07,0.01 0.07,0.01 0.07,0.01 0.06,0.02 0.07,0.02 0.06,0.02 0.06,0.02 0.06,0.03 0.06,0.03 0.05,0.04 0.05,0.03 0.05,0.05 0.04,0.04 0.04,0.05 0.02,0.03 0.02,0.03 0.01,0.02 0.02,0.03 0.01,0.03 0.02,0.04 0.01,0.03 0.01,0.04 0.01,0.03 0.01,0.04 v 0.04 l 0.01,0.04 v 0.04 l 0.01,0.04 v 0.04 0.05 c 0,1 -0.95,1 -1.64,1 h -29.84 c -0.71,0 -1.64,0 -1.64,-1 0,-0.98 0.93,-0.98 1.68,-0.98 z"
           id="path7531" /><path
           style="fill:#000000;stroke-width:0"
           inkscape:connector-curvature="0"
           d="m 489.8,412.82 h 0.07 0.06 l 0.14,0.01 h 0.14 0.07 l 0.07,0.01 0.07,0.01 h 0.07 l 0.06,0.01 0.07,0.02 0.07,0.01 0.06,0.02 0.07,0.02 0.06,0.02 0.06,0.02 0.06,0.03 0.05,0.03 0.05,0.04 0.05,0.04 0.05,0.04 0.04,0.05 0.02,0.02 0.02,0.03 0.02,0.02 0.02,0.03 0.01,0.03 0.02,0.03 0.01,0.03 0.02,0.03 0.01,0.04 0.01,0.03 0.01,0.04 0.01,0.04 v 0.04 l 0.01,0.04 v 0.04 l 0.01,0.04 v 0.05 0.04 c 0,1 -0.95,1 -1.69,1 H 460 c -0.75,0 -1.68,0 -1.68,-1 0,-1 0.93,-1 1.64,-1 z"
           id="path7533" /><path
           style="fill:#000000;stroke-width:0"
           inkscape:connector-curvature="0"
           d="m 543.14,446.6 0.07,0.25 0.07,0.24 0.05,0.12 0.04,0.11 0.05,0.12 0.05,0.11 0.06,0.11 0.06,0.11 0.06,0.1 0.08,0.1 0.07,0.1 0.08,0.09 0.09,0.1 0.1,0.08 0.1,0.09 0.11,0.08 0.12,0.08 0.13,0.07 0.14,0.07 0.14,0.06 0.15,0.06 0.17,0.05 0.17,0.05 0.18,0.05 0.2,0.04 0.21,0.03 0.21,0.03 0.12,0.01 0.11,0.01 0.12,0.01 0.12,0.01 h 0.13 l 0.13,0.01 c 0.17,0 0.7,0.03 0.7,0.76 0,0.21 -0.17,0.49 -0.53,0.49 -1.14,0 -2.44,-0.14 -3.62,-0.14 -0.83,0 -2.85,0.14 -3.69,0.14 -0.17,0 -0.71,0 -0.71,-0.77 0,-0.45 0.46,-0.48 0.79,-0.48 1.62,-0.03 2.21,-0.56 2.21,-1.44 0,-0.26 -0.03,-0.45 -0.14,-0.83 l -3.79,-15.18 -8.85,18.1 c -0.28,0.6 -0.34,0.6 -1.18,0.6 h -4.77 c -0.67,0 -1.13,0 -1.13,-0.77 0,-0.48 0.43,-0.48 1.16,-0.48 0.74,0 1.5,-0.03 2.22,-0.17 l -4.66,-18.64 c -0.31,-1.33 -0.9,-2.38 -3.62,-2.49 -0.25,0 -0.74,-0.03 -0.74,-0.73 0,-0.38 0.29,-0.52 0.52,-0.52 1.16,0 2.44,0.14 3.62,0.14 0.85,0 2.86,-0.14 3.71,-0.14 0.34,0 0.69,0.17 0.69,0.74 0,0.48 -0.43,0.51 -0.8,0.51 -2.2,0.08 -2.2,0.99 -2.2,1.47 0,0.14 0,0.31 0.14,0.88 l 4.46,17.82 10.18,-20.82 c 0.28,-0.57 0.42,-0.6 0.76,-0.6 0.56,0 0.56,0.11 0.74,0.74 z"
           id="path7535" /><path
           style="fill:#000000;stroke-width:0"
           inkscape:connector-curvature="0"
           d="m 552.73,427.17 -0.12,0.84 h -1.44 c 1.13,3.47 4.19,3.7 4.94,3.7 1.23,0 2.33,-0.48 2.33,-1.4 0,-2.3 -4.66,-2.3 -5.83,-2.3 l 0.12,-0.84 c 2.52,0 6.99,0.29 6.99,3.15 0,1.27 -1.3,2.25 -3.6,2.25 -3.39,0 -7.68,-2.26 -7.68,-6.4 0,-2.27 1.47,-4.89 5.25,-4.89 0.47,0 2.47,0 4.14,0.65 1.65,0.64 2.65,1.8 2.65,2.07 0,0.2 -0.32,0.57 -0.54,0.57 -0.13,0 -0.14,-0.03 -0.55,-0.42 -1.22,-1.37 -3.44,-2.01 -5.67,-2.01 -2.05,0 -3.02,1.26 -3.02,3.14 0,0.23 0,0.89 0.25,1.89 z"
           id="path7537" /><path
           style="fill:#000000;stroke-width:0"
           inkscape:connector-curvature="0"
           d="m 591,434.48 h 0.05 0.06 0.11 0.12 l 0.06,0.01 h 0.05 l 0.06,0.01 h 0.06 l 0.06,0.01 0.06,0.01 0.05,0.01 0.06,0.02 0.05,0.01 0.06,0.02 0.05,0.02 0.05,0.03 0.04,0.02 0.05,0.03 0.04,0.04 0.04,0.03 0.04,0.04 0.02,0.02 0.01,0.02 0.02,0.03 0.01,0.02 0.02,0.02 0.01,0.03 0.01,0.03 0.01,0.02 0.01,0.03 0.01,0.03 0.01,0.03 0.01,0.03 0.01,0.04 v 0.03 l 0.01,0.04 v 0.03 0.04 0.04 c 0,0.86 -0.8,0.86 -1.39,0.86 h -20.77 c -0.56,0 -1.39,0 -1.39,-0.83 0,-0.87 0.8,-0.87 1.39,-0.87 z"
           id="path7539" /><path
           style="fill:#000000;stroke-width:0"
           inkscape:connector-curvature="0"
           d="m 607.83,448.76 v 0.04 0.04 0.05 0.04 0.03 0.04 l -0.01,0.04 v 0.03 0.04 0.03 0.03 0.03 l -0.01,0.03 v 0.03 0.03 l -0.01,0.02 v 0.03 l -0.01,0.02 v 0.03 l -0.01,0.02 -0.01,0.04 -0.01,0.04 -0.02,0.03 -0.02,0.03 -0.02,0.03 -0.03,0.03 -0.02,0.02 -0.03,0.02 -0.04,0.02 -0.03,0.01 -0.05,0.01 -0.04,0.02 h -0.02 -0.03 l -0.02,0.01 h -0.03 l -0.03,0.01 h -0.03 -0.03 -0.03 -0.03 l -0.03,0.01 h -0.04 -0.03 -0.04 -0.04 -0.03 -0.04 -0.05 -0.04 -0.04 -0.05 c -2.23,-2.2 -5.39,-2.23 -6.83,-2.23 v -1.25 c 0.85,0 3.14,0 5.05,0.97 v -17.77 c 0,-1.16 0,-1.61 -3.48,-1.61 h -1.32 v -1.25 c 0.63,0.03 4.91,0.14 6.21,0.14 1.07,0 5.47,-0.11 6.23,-0.14 v 1.25 h -1.33 c -3.48,0 -3.48,0.45 -3.48,1.61 z"
           id="path7541" /><polyline
           style="fill:#000000;fill-rule:nonzero;stroke-width:0"
           points="514,418 616,418 616,420.04 514,420.04 "
           id="polyline7543" /><path
           style="fill:#000000;stroke-width:0"
           inkscape:connector-curvature="0"
           d="m 568.7,409.04 0.07,0.25 0.08,0.24 0.04,0.11 0.04,0.12 0.05,0.11 0.05,0.12 0.06,0.11 0.06,0.1 0.07,0.11 0.07,0.1 0.07,0.1 0.09,0.09 0.09,0.09 0.09,0.09 0.11,0.09 0.11,0.08 0.12,0.07 0.12,0.08 0.14,0.06 0.14,0.07 0.16,0.06 0.16,0.05 0.17,0.05 0.19,0.05 0.19,0.03 0.21,0.04 0.22,0.03 0.11,0.01 0.11,0.01 0.12,0.01 0.13,0.01 h 0.12 l 0.13,0.01 c 0.17,0 0.7,0.03 0.7,0.76 0,0.2 -0.17,0.49 -0.53,0.49 -1.14,0 -2.44,-0.14 -3.62,-0.14 -0.83,0 -2.85,0.14 -3.69,0.14 -0.17,0 -0.7,0 -0.7,-0.77 0,-0.45 0.45,-0.48 0.78,-0.48 1.62,-0.04 2.22,-0.57 2.22,-1.44 0,-0.27 -0.03,-0.45 -0.14,-0.83 l -3.8,-15.19 -8.84,18.11 c -0.29,0.6 -0.35,0.6 -1.19,0.6 h -4.77 c -0.67,0 -1.12,0 -1.12,-0.77 0,-0.48 0.42,-0.48 1.15,-0.48 0.74,0 1.5,-0.04 2.22,-0.18 l -4.65,-18.64 c -0.32,-1.32 -0.91,-2.37 -3.63,-2.48 -0.25,0 -0.73,-0.03 -0.73,-0.74 0,-0.37 0.28,-0.51 0.51,-0.51 1.16,0 2.44,0.14 3.63,0.14 0.84,0 2.86,-0.14 3.7,-0.14 0.34,0 0.69,0.17 0.69,0.73 0,0.49 -0.42,0.52 -0.8,0.52 -2.2,0.08 -2.2,0.98 -2.2,1.47 0,0.14 0,0.31 0.14,0.87 l 4.47,17.83 10.17,-20.83 c 0.28,-0.56 0.42,-0.59 0.76,-0.59 0.57,0 0.57,0.11 0.74,0.73 z"
           id="path7545" /><path
           style="fill:#000000;stroke-width:0"
           inkscape:connector-curvature="0"
           d="m 578.29,389.61 -0.12,0.84 h -1.44 c 1.12,3.47 4.19,3.71 4.94,3.71 1.23,0 2.33,-0.49 2.33,-1.41 0,-2.3 -4.66,-2.3 -5.83,-2.3 l 0.12,-0.84 c 2.52,0 6.99,0.3 6.99,3.16 0,1.26 -1.3,2.25 -3.6,2.25 -3.39,0 -7.68,-2.27 -7.68,-6.41 0,-2.27 1.47,-4.89 5.25,-4.89 0.47,0 2.47,0 4.14,0.66 1.65,0.64 2.65,1.79 2.65,2.06 0,0.2 -0.32,0.58 -0.54,0.58 -0.13,0 -0.15,-0.04 -0.55,-0.43 -1.22,-1.37 -3.44,-2.01 -5.67,-2.01 -2.05,0 -3.02,1.26 -3.02,3.14 0,0.23 0,0.89 0.25,1.89 z"
           id="path7547" /><path
           style="fill:#000000;stroke-width:0"
           inkscape:connector-curvature="0"
           d="m 647.62,422 0.03,0.11 0.02,0.13 0.04,0.12 0.03,0.13 0.03,0.13 0.03,0.14 0.07,0.27 0.06,0.28 0.07,0.28 0.06,0.27 0.07,0.27 0.03,0.13 0.03,0.13 0.02,0.13 0.03,0.12 0.03,0.12 0.02,0.12 0.02,0.11 0.02,0.1 0.02,0.1 0.02,0.09 0.01,0.09 0.01,0.08 0.01,0.07 0.01,0.06 v 0.06 0.04 c 0,1.6 -1.29,2.19 -2.34,2.19 -0.94,0 -1.94,-0.5 -2.53,-1.25 -0.75,0.8 -2.39,2.09 -5.28,2.09 l 0.09,-1.79 c 2.94,0 4.14,-2.33 4.14,-2.88 l -0.11,-0.7 -3.03,-12.5 c -1.45,-1.7 -3.8,-3.25 -6.19,-3.25 -3.07,0 -3.32,2.69 -3.32,3.8 0,2.57 1.68,8.72 2.48,10.65 1.55,3.64 3.98,4.88 6.03,4.88 l -0.09,1.79 c -8.67,0 -14.06,-7.87 -14.06,-14.68 0,-6.14 4.59,-8.24 8.71,-8.24 3.55,0 6.14,1.96 6.94,2.71 1.89,-2.71 5.17,-2.71 5.72,-2.71 1.84,0 3.3,1.05 4.34,2.85 1.25,2 1.89,4.68 1.89,4.93 0,0.71 -0.75,0.71 -1.2,0.71 -0.55,0 -0.73,0 -0.98,-0.25 -0.11,-0.11 -0.11,-0.21 -0.41,-1.46 -1,-3.98 -2.14,-4.98 -3.39,-4.98 -0.55,0 -1.14,0.2 -1.14,1.84 0,0.85 0.2,1.64 0.7,3.64 0.35,1.39 0.85,3.39 1.1,4.49 z"
           id="path7549" /></g>    </g>
    <g
       id="g7745"
       transform="matrix(0.66197583,0,0,0.65868072,39.112725,129.43419)">
      <g
         word-spacing="normal"
         letter-spacing="normal"
         font-size-adjust="none"
         font-stretch="normal"
         font-weight="normal"
         font-variant="normal"
         font-style="normal"
         stroke-miterlimit="10.433"
         xml:space="preserve"
         transform="matrix(0.3,0,0,-0.3,-52.5,222.75)"
         id="g7743"
         style="font-style:normal;font-variant:normal;font-weight:normal;font-stretch:normal;letter-spacing:normal;word-spacing:normal;text-anchor:start;fill:none;fill-opacity:1;fill-rule:evenodd;stroke:#000000;stroke-linecap:butt;stroke-linejoin:miter;stroke-miterlimit:10.43299961;stroke-dasharray:none;stroke-dashoffset:0;stroke-opacity:1"><path
           id="path7727"
           d="m 489.75,422.5 h 0.14 0.15 0.14 l 0.07,0.01 h 0.08 l 0.07,0.01 0.07,0.01 0.07,0.01 0.07,0.01 0.07,0.01 0.06,0.02 0.07,0.02 0.06,0.02 0.06,0.02 0.06,0.03 0.06,0.03 0.05,0.04 0.05,0.03 0.05,0.05 0.04,0.04 0.04,0.05 0.02,0.03 0.02,0.03 0.01,0.02 0.02,0.03 0.01,0.03 0.02,0.04 0.01,0.03 0.01,0.04 0.01,0.03 0.01,0.04 v 0.04 l 0.01,0.04 v 0.04 l 0.01,0.04 v 0.04 0.05 c 0,1 -0.95,1 -1.64,1 h -29.84 c -0.71,0 -1.64,0 -1.64,-1 0,-0.98 0.93,-0.98 1.68,-0.98 z"
           inkscape:connector-curvature="0"
           style="fill:#000000;stroke-width:0" /><path
           id="path7729"
           d="m 489.8,412.82 h 0.07 0.06 l 0.14,0.01 h 0.14 0.07 l 0.07,0.01 0.07,0.01 h 0.07 l 0.06,0.01 0.07,0.02 0.07,0.01 0.06,0.02 0.07,0.02 0.06,0.02 0.06,0.02 0.06,0.03 0.05,0.03 0.05,0.04 0.05,0.04 0.05,0.04 0.04,0.05 0.02,0.02 0.02,0.03 0.02,0.02 0.02,0.03 0.01,0.03 0.02,0.03 0.01,0.03 0.02,0.03 0.01,0.04 0.01,0.03 0.01,0.04 0.01,0.04 v 0.04 l 0.01,0.04 v 0.04 l 0.01,0.04 v 0.05 0.04 c 0,1 -0.95,1 -1.69,1 H 460 c -0.75,0 -1.68,0 -1.68,-1 0,-1 0.93,-1 1.64,-1 z"
           inkscape:connector-curvature="0"
           style="fill:#000000;stroke-width:0" /><path
           id="path7731"
           d="m 540,433.64 h 0.05 0.06 0.11 0.12 l 0.06,0.01 h 0.05 l 0.06,0.01 h 0.06 l 0.06,0.01 0.06,0.01 0.05,0.01 0.06,0.02 0.05,0.01 0.06,0.02 0.05,0.02 0.05,0.03 0.04,0.02 0.05,0.03 0.04,0.04 0.04,0.03 0.04,0.04 0.02,0.02 0.01,0.02 0.02,0.03 0.01,0.02 0.02,0.02 0.01,0.03 0.01,0.03 0.01,0.02 0.01,0.03 0.01,0.03 0.01,0.03 0.01,0.03 0.01,0.04 v 0.03 l 0.01,0.04 v 0.03 0.04 0.04 c 0,0.86 -0.8,0.86 -1.39,0.86 h -20.77 c -0.56,0 -1.39,0 -1.39,-0.83 0,-0.87 0.8,-0.87 1.39,-0.87 z"
           inkscape:connector-curvature="0"
           style="fill:#000000;stroke-width:0" /><path
           id="path7733"
           d="m 556.83,447.92 v 0.04 0.04 0.05 0.04 0.03 0.04 l -0.01,0.04 v 0.03 0.04 0.03 0.03 0.03 l -0.01,0.03 v 0.03 0.03 l -0.01,0.02 v 0.03 l -0.01,0.02 v 0.03 l -0.01,0.02 -0.01,0.04 -0.01,0.04 -0.02,0.03 -0.02,0.03 -0.02,0.03 -0.03,0.03 -0.02,0.02 -0.03,0.02 -0.04,0.02 -0.03,0.01 -0.05,0.01 -0.04,0.02 h -0.02 -0.03 l -0.02,0.01 h -0.03 l -0.03,0.01 h -0.03 -0.03 -0.03 -0.03 l -0.03,0.01 h -0.04 -0.03 -0.04 -0.04 -0.03 -0.04 -0.05 -0.04 -0.04 -0.05 c -2.23,-2.2 -5.39,-2.23 -6.83,-2.23 v -1.25 c 0.85,0 3.14,0 5.05,0.97 v -17.77 c 0,-1.16 0,-1.61 -3.48,-1.61 h -1.32 v -1.25 c 0.63,0.03 4.91,0.14 6.21,0.14 1.07,0 5.47,-0.11 6.23,-0.14 v 1.25 h -1.33 c -3.48,0 -3.48,0.45 -3.48,1.61 z"
           inkscape:connector-curvature="0"
           style="fill:#000000;stroke-width:0" /><polyline
           id="polyline7735"
           points="514,418 565,418 565,420.04 514,420.04 "
           style="fill:#000000;fill-rule:nonzero;stroke-width:0" /><path
           id="path7737"
           d="m 543.14,409.04 0.07,0.25 0.07,0.24 0.05,0.11 0.04,0.12 0.05,0.11 0.05,0.12 0.06,0.11 0.06,0.1 0.06,0.11 0.08,0.1 0.07,0.1 0.08,0.09 0.09,0.09 0.1,0.09 0.1,0.09 0.11,0.08 0.12,0.07 0.13,0.08 0.14,0.06 0.14,0.07 0.15,0.06 0.17,0.05 0.17,0.05 0.18,0.05 0.2,0.03 0.21,0.04 0.21,0.03 0.12,0.01 0.11,0.01 0.12,0.01 0.12,0.01 h 0.13 l 0.13,0.01 c 0.17,0 0.7,0.03 0.7,0.76 0,0.2 -0.17,0.49 -0.53,0.49 -1.14,0 -2.44,-0.14 -3.62,-0.14 -0.83,0 -2.85,0.14 -3.69,0.14 -0.17,0 -0.71,0 -0.71,-0.77 0,-0.45 0.46,-0.48 0.79,-0.48 1.62,-0.04 2.21,-0.57 2.21,-1.44 0,-0.27 -0.03,-0.45 -0.14,-0.83 l -3.79,-15.19 -8.85,18.11 c -0.28,0.6 -0.34,0.6 -1.18,0.6 h -4.77 c -0.67,0 -1.13,0 -1.13,-0.77 0,-0.48 0.43,-0.48 1.16,-0.48 0.74,0 1.5,-0.04 2.22,-0.18 l -4.66,-18.64 c -0.31,-1.32 -0.9,-2.37 -3.62,-2.48 -0.25,0 -0.74,-0.03 -0.74,-0.74 0,-0.37 0.29,-0.51 0.52,-0.51 1.16,0 2.44,0.14 3.62,0.14 0.85,0 2.86,-0.14 3.71,-0.14 0.34,0 0.69,0.17 0.69,0.73 0,0.49 -0.43,0.52 -0.8,0.52 -2.2,0.08 -2.2,0.98 -2.2,1.47 0,0.14 0,0.31 0.14,0.87 l 4.46,17.83 10.18,-20.83 c 0.28,-0.56 0.42,-0.59 0.76,-0.59 0.56,0 0.56,0.11 0.74,0.73 z"
           inkscape:connector-curvature="0"
           style="fill:#000000;stroke-width:0" /><path
           id="path7739"
           d="m 552.73,389.61 -0.12,0.84 h -1.44 c 1.13,3.47 4.19,3.71 4.94,3.71 1.23,0 2.33,-0.49 2.33,-1.41 0,-2.3 -4.66,-2.3 -5.83,-2.3 l 0.12,-0.84 c 2.52,0 6.99,0.3 6.99,3.16 0,1.26 -1.3,2.25 -3.6,2.25 -3.39,0 -7.68,-2.27 -7.68,-6.41 0,-2.27 1.47,-4.89 5.25,-4.89 0.47,0 2.47,0 4.14,0.66 1.65,0.64 2.65,1.79 2.65,2.06 0,0.2 -0.32,0.58 -0.54,0.58 -0.13,0 -0.14,-0.04 -0.55,-0.43 -1.22,-1.37 -3.44,-2.01 -5.67,-2.01 -2.05,0 -3.02,1.26 -3.02,3.14 0,0.23 0,0.89 0.25,1.89 z"
           inkscape:connector-curvature="0"
           style="fill:#000000;stroke-width:0" /><path
           id="path7741"
           d="m 596.73,422 0.03,0.11 0.03,0.13 0.03,0.12 0.03,0.13 0.04,0.13 0.03,0.14 0.06,0.27 0.07,0.28 0.07,0.28 0.06,0.27 0.06,0.27 0.03,0.13 0.03,0.13 0.03,0.13 0.03,0.12 0.02,0.12 0.03,0.12 0.02,0.11 0.02,0.1 0.02,0.1 0.01,0.09 0.02,0.09 0.01,0.08 0.01,0.07 0.01,0.06 v 0.06 0.04 c 0,1.6 -1.3,2.19 -2.34,2.19 -0.94,0 -1.94,-0.5 -2.53,-1.25 -0.75,0.8 -2.39,2.09 -5.28,2.09 l 0.09,-1.79 c 2.94,0 4.14,-2.33 4.14,-2.88 l -0.11,-0.7 -3.03,-12.5 c -1.45,-1.7 -3.8,-3.25 -6.19,-3.25 -3.08,0 -3.33,2.69 -3.33,3.8 0,2.57 1.69,8.72 2.49,10.65 1.54,3.64 3.98,4.88 6.03,4.88 l -0.09,1.79 c -8.68,0 -14.07,-7.87 -14.07,-14.68 0,-6.14 4.6,-8.24 8.72,-8.24 3.55,0 6.14,1.96 6.94,2.71 1.89,-2.71 5.17,-2.71 5.72,-2.71 1.84,0 3.29,1.05 4.34,2.85 1.25,2 1.89,4.68 1.89,4.93 0,0.71 -0.75,0.71 -1.2,0.71 -0.55,0 -0.74,0 -0.99,-0.25 -0.11,-0.11 -0.11,-0.21 -0.4,-1.46 -1,-3.98 -2.14,-4.98 -3.39,-4.98 -0.55,0 -1.14,0.2 -1.14,1.84 0,0.85 0.2,1.64 0.7,3.64 0.34,1.39 0.84,3.39 1.09,4.49 z"
           inkscape:connector-curvature="0"
           style="fill:#000000;stroke-width:0" /></g>    </g>
    <path
       style="fill:none;stroke:#000000;stroke-width:0.30000001;stroke-linecap:butt;stroke-linejoin:miter;stroke-miterlimit:4;stroke-dasharray:none;stroke-opacity:1;marker-start:url(#Arrow1Lstart-4-7)"
       d="m 105.67182,145.09408 12.07434,-17.68573"
       id="path2976-2-7-6"
       inkscape:connector-curvature="0" />
  </g>
</svg>
